<mxfile host="app.diagrams.net" agent="Mozilla/5.0 (Macintosh; Intel Mac OS X 10_15_7) AppleWebKit/537.36 (KHTML, like Gecko) Chrome/135.0.0.0 Safari/537.36" version="27.0.6">
  <diagram name="페이지-1" id="3pHCtD_cYr_nuvRxcvZz">
    <mxGraphModel dx="1306" dy="773" grid="1" gridSize="10" guides="1" tooltips="1" connect="1" arrows="1" fold="1" page="1" pageScale="1" pageWidth="1169" pageHeight="827" math="0" shadow="0">
      <root>
        <mxCell id="0" />
        <mxCell id="1" parent="0" />
        <mxCell id="Qvv73ghP7qG-29LPeC-G-1" value="&amp;lt;&amp;lt;controll&amp;gt;&amp;gt;&lt;div&gt;&lt;div&gt;&lt;div&gt;UserController&lt;/div&gt;&lt;/div&gt;&lt;/div&gt;" style="swimlane;fontStyle=1;align=center;verticalAlign=top;childLayout=stackLayout;horizontal=1;startSize=50;horizontalStack=0;resizeParent=1;resizeParentMax=0;resizeLast=0;collapsible=1;marginBottom=0;whiteSpace=wrap;html=1;" parent="1" vertex="1">
          <mxGeometry x="40" y="40" width="160" height="130" as="geometry">
            <mxRectangle x="50" y="40" width="110" height="60" as="alternateBounds" />
          </mxGeometry>
        </mxCell>
        <mxCell id="Qvv73ghP7qG-29LPeC-G-3" value="" style="line;strokeWidth=1;fillColor=none;align=left;verticalAlign=middle;spacingTop=-1;spacingLeft=3;spacingRight=3;rotatable=0;labelPosition=right;points=[];portConstraint=eastwest;strokeColor=inherit;" parent="Qvv73ghP7qG-29LPeC-G-1" vertex="1">
          <mxGeometry y="50" width="160" height="8" as="geometry" />
        </mxCell>
        <mxCell id="Qvv73ghP7qG-29LPeC-G-4" value="makeNewUser()&lt;div&gt;userLogin()&lt;/div&gt;&lt;div&gt;userLogOut()&lt;/div&gt;" style="text;strokeColor=none;fillColor=none;align=left;verticalAlign=top;spacingLeft=4;spacingRight=4;overflow=hidden;rotatable=0;points=[[0,0.5],[1,0.5]];portConstraint=eastwest;whiteSpace=wrap;html=1;" parent="Qvv73ghP7qG-29LPeC-G-1" vertex="1">
          <mxGeometry y="58" width="160" height="72" as="geometry" />
        </mxCell>
        <mxCell id="Qvv73ghP7qG-29LPeC-G-13" value="&amp;lt;&amp;lt;controll&amp;gt;&amp;gt;&lt;div&gt;&lt;div&gt;&lt;div&gt;BikeController&lt;/div&gt;&lt;/div&gt;&lt;/div&gt;" style="swimlane;fontStyle=1;align=center;verticalAlign=top;childLayout=stackLayout;horizontal=1;startSize=50;horizontalStack=0;resizeParent=1;resizeParentMax=0;resizeLast=0;collapsible=1;marginBottom=0;whiteSpace=wrap;html=1;" parent="1" vertex="1">
          <mxGeometry x="240" y="40" width="160" height="130" as="geometry">
            <mxRectangle x="50" y="40" width="110" height="60" as="alternateBounds" />
          </mxGeometry>
        </mxCell>
        <mxCell id="Qvv73ghP7qG-29LPeC-G-15" value="" style="line;strokeWidth=1;fillColor=none;align=left;verticalAlign=middle;spacingTop=-1;spacingLeft=3;spacingRight=3;rotatable=0;labelPosition=right;points=[];portConstraint=eastwest;strokeColor=inherit;" parent="Qvv73ghP7qG-29LPeC-G-13" vertex="1">
          <mxGeometry y="50" width="160" height="8" as="geometry" />
        </mxCell>
        <mxCell id="Qvv73ghP7qG-29LPeC-G-16" value="makeNewBike()&lt;div&gt;requestRentBike()&lt;/div&gt;&lt;div&gt;requestRentalBikeList()&lt;/div&gt;" style="text;strokeColor=none;fillColor=none;align=left;verticalAlign=top;spacingLeft=4;spacingRight=4;overflow=hidden;rotatable=0;points=[[0,0.5],[1,0.5]];portConstraint=eastwest;whiteSpace=wrap;html=1;" parent="Qvv73ghP7qG-29LPeC-G-13" vertex="1">
          <mxGeometry y="58" width="160" height="72" as="geometry" />
        </mxCell>
        <mxCell id="Qvv73ghP7qG-29LPeC-G-18" value="&amp;lt;&amp;lt;bounday&amp;gt;&amp;gt;&lt;div&gt;&lt;div&gt;&lt;div&gt;MakeUserUI&lt;/div&gt;&lt;/div&gt;&lt;/div&gt;" style="swimlane;fontStyle=1;align=center;verticalAlign=top;childLayout=stackLayout;horizontal=1;startSize=50;horizontalStack=0;resizeParent=1;resizeParentMax=0;resizeLast=0;collapsible=1;marginBottom=0;whiteSpace=wrap;html=1;" parent="1" vertex="1">
          <mxGeometry x="40" y="280" width="160" height="130" as="geometry">
            <mxRectangle x="50" y="40" width="110" height="60" as="alternateBounds" />
          </mxGeometry>
        </mxCell>
        <mxCell id="Qvv73ghP7qG-29LPeC-G-20" value="" style="line;strokeWidth=1;fillColor=none;align=left;verticalAlign=middle;spacingTop=-1;spacingLeft=3;spacingRight=3;rotatable=0;labelPosition=right;points=[];portConstraint=eastwest;strokeColor=inherit;" parent="Qvv73ghP7qG-29LPeC-G-18" vertex="1">
          <mxGeometry y="50" width="160" height="8" as="geometry" />
        </mxCell>
        <mxCell id="Qvv73ghP7qG-29LPeC-G-21" value="InputUserInformation()" style="text;strokeColor=none;fillColor=none;align=left;verticalAlign=top;spacingLeft=4;spacingRight=4;overflow=hidden;rotatable=0;points=[[0,0.5],[1,0.5]];portConstraint=eastwest;whiteSpace=wrap;html=1;" parent="Qvv73ghP7qG-29LPeC-G-18" vertex="1">
          <mxGeometry y="58" width="160" height="72" as="geometry" />
        </mxCell>
        <mxCell id="Qvv73ghP7qG-29LPeC-G-22" value="&amp;lt;&amp;lt;bounday&amp;gt;&amp;gt;&lt;div&gt;&lt;div&gt;&lt;div&gt;LogInUI&lt;/div&gt;&lt;/div&gt;&lt;/div&gt;" style="swimlane;fontStyle=1;align=center;verticalAlign=top;childLayout=stackLayout;horizontal=1;startSize=50;horizontalStack=0;resizeParent=1;resizeParentMax=0;resizeLast=0;collapsible=1;marginBottom=0;whiteSpace=wrap;html=1;" parent="1" vertex="1">
          <mxGeometry x="240" y="280" width="160" height="130" as="geometry">
            <mxRectangle x="50" y="40" width="110" height="60" as="alternateBounds" />
          </mxGeometry>
        </mxCell>
        <mxCell id="Qvv73ghP7qG-29LPeC-G-24" value="" style="line;strokeWidth=1;fillColor=none;align=left;verticalAlign=middle;spacingTop=-1;spacingLeft=3;spacingRight=3;rotatable=0;labelPosition=right;points=[];portConstraint=eastwest;strokeColor=inherit;" parent="Qvv73ghP7qG-29LPeC-G-22" vertex="1">
          <mxGeometry y="50" width="160" height="8" as="geometry" />
        </mxCell>
        <mxCell id="Qvv73ghP7qG-29LPeC-G-25" value="inputUserIDandPassword()" style="text;strokeColor=none;fillColor=none;align=left;verticalAlign=top;spacingLeft=4;spacingRight=4;overflow=hidden;rotatable=0;points=[[0,0.5],[1,0.5]];portConstraint=eastwest;whiteSpace=wrap;html=1;" parent="Qvv73ghP7qG-29LPeC-G-22" vertex="1">
          <mxGeometry y="58" width="160" height="72" as="geometry" />
        </mxCell>
        <mxCell id="Qvv73ghP7qG-29LPeC-G-26" value="&amp;lt;&amp;lt;bounday&amp;gt;&amp;gt;&lt;div&gt;&lt;div&gt;&lt;div&gt;BikeRentalStatusUI&lt;/div&gt;&lt;/div&gt;&lt;/div&gt;" style="swimlane;fontStyle=1;align=center;verticalAlign=top;childLayout=stackLayout;horizontal=1;startSize=50;horizontalStack=0;resizeParent=1;resizeParentMax=0;resizeLast=0;collapsible=1;marginBottom=0;whiteSpace=wrap;html=1;" parent="1" vertex="1">
          <mxGeometry x="240" y="620" width="160" height="130" as="geometry">
            <mxRectangle x="50" y="40" width="110" height="60" as="alternateBounds" />
          </mxGeometry>
        </mxCell>
        <mxCell id="Qvv73ghP7qG-29LPeC-G-28" value="" style="line;strokeWidth=1;fillColor=none;align=left;verticalAlign=middle;spacingTop=-1;spacingLeft=3;spacingRight=3;rotatable=0;labelPosition=right;points=[];portConstraint=eastwest;strokeColor=inherit;" parent="Qvv73ghP7qG-29LPeC-G-26" vertex="1">
          <mxGeometry y="50" width="160" height="8" as="geometry" />
        </mxCell>
        <mxCell id="Qvv73ghP7qG-29LPeC-G-29" value="getRentalBikeList()" style="text;strokeColor=none;fillColor=none;align=left;verticalAlign=top;spacingLeft=4;spacingRight=4;overflow=hidden;rotatable=0;points=[[0,0.5],[1,0.5]];portConstraint=eastwest;whiteSpace=wrap;html=1;" parent="Qvv73ghP7qG-29LPeC-G-26" vertex="1">
          <mxGeometry y="58" width="160" height="72" as="geometry" />
        </mxCell>
        <mxCell id="Qvv73ghP7qG-29LPeC-G-30" value="&amp;lt;&amp;lt;bounday&amp;gt;&amp;gt;&lt;div&gt;LogOutUI&lt;/div&gt;" style="swimlane;fontStyle=1;align=center;verticalAlign=top;childLayout=stackLayout;horizontal=1;startSize=50;horizontalStack=0;resizeParent=1;resizeParentMax=0;resizeLast=0;collapsible=1;marginBottom=0;whiteSpace=wrap;html=1;" parent="1" vertex="1">
          <mxGeometry x="40" y="450" width="160" height="130" as="geometry">
            <mxRectangle x="50" y="40" width="110" height="60" as="alternateBounds" />
          </mxGeometry>
        </mxCell>
        <mxCell id="Qvv73ghP7qG-29LPeC-G-32" value="" style="line;strokeWidth=1;fillColor=none;align=left;verticalAlign=middle;spacingTop=-1;spacingLeft=3;spacingRight=3;rotatable=0;labelPosition=right;points=[];portConstraint=eastwest;strokeColor=inherit;" parent="Qvv73ghP7qG-29LPeC-G-30" vertex="1">
          <mxGeometry y="50" width="160" height="8" as="geometry" />
        </mxCell>
        <mxCell id="Qvv73ghP7qG-29LPeC-G-33" value="logOut()" style="text;strokeColor=none;fillColor=none;align=left;verticalAlign=top;spacingLeft=4;spacingRight=4;overflow=hidden;rotatable=0;points=[[0,0.5],[1,0.5]];portConstraint=eastwest;whiteSpace=wrap;html=1;" parent="Qvv73ghP7qG-29LPeC-G-30" vertex="1">
          <mxGeometry y="58" width="160" height="72" as="geometry" />
        </mxCell>
        <mxCell id="Qvv73ghP7qG-29LPeC-G-34" value="&amp;lt;&amp;lt;bounday&amp;gt;&amp;gt;&lt;div&gt;&lt;div&gt;&lt;div&gt;RegisterBikeUI&lt;/div&gt;&lt;/div&gt;&lt;/div&gt;" style="swimlane;fontStyle=1;align=center;verticalAlign=top;childLayout=stackLayout;horizontal=1;startSize=50;horizontalStack=0;resizeParent=1;resizeParentMax=0;resizeLast=0;collapsible=1;marginBottom=0;whiteSpace=wrap;html=1;" parent="1" vertex="1">
          <mxGeometry x="240" y="450" width="160" height="130" as="geometry">
            <mxRectangle x="50" y="40" width="110" height="60" as="alternateBounds" />
          </mxGeometry>
        </mxCell>
        <mxCell id="Qvv73ghP7qG-29LPeC-G-36" value="" style="line;strokeWidth=1;fillColor=none;align=left;verticalAlign=middle;spacingTop=-1;spacingLeft=3;spacingRight=3;rotatable=0;labelPosition=right;points=[];portConstraint=eastwest;strokeColor=inherit;" parent="Qvv73ghP7qG-29LPeC-G-34" vertex="1">
          <mxGeometry y="50" width="160" height="8" as="geometry" />
        </mxCell>
        <mxCell id="Qvv73ghP7qG-29LPeC-G-37" value="inputBikeInformation()" style="text;strokeColor=none;fillColor=none;align=left;verticalAlign=top;spacingLeft=4;spacingRight=4;overflow=hidden;rotatable=0;points=[[0,0.5],[1,0.5]];portConstraint=eastwest;whiteSpace=wrap;html=1;" parent="Qvv73ghP7qG-29LPeC-G-34" vertex="1">
          <mxGeometry y="58" width="160" height="72" as="geometry" />
        </mxCell>
        <mxCell id="Qvv73ghP7qG-29LPeC-G-38" value="&amp;lt;&amp;lt;bounday&amp;gt;&amp;gt;&lt;div&gt;&lt;div&gt;&lt;div&gt;RentalBikeUI&lt;/div&gt;&lt;/div&gt;&lt;/div&gt;" style="swimlane;fontStyle=1;align=center;verticalAlign=top;childLayout=stackLayout;horizontal=1;startSize=50;horizontalStack=0;resizeParent=1;resizeParentMax=0;resizeLast=0;collapsible=1;marginBottom=0;whiteSpace=wrap;html=1;" parent="1" vertex="1">
          <mxGeometry x="40" y="620" width="160" height="130" as="geometry">
            <mxRectangle x="50" y="40" width="110" height="60" as="alternateBounds" />
          </mxGeometry>
        </mxCell>
        <mxCell id="Qvv73ghP7qG-29LPeC-G-40" value="" style="line;strokeWidth=1;fillColor=none;align=left;verticalAlign=middle;spacingTop=-1;spacingLeft=3;spacingRight=3;rotatable=0;labelPosition=right;points=[];portConstraint=eastwest;strokeColor=inherit;" parent="Qvv73ghP7qG-29LPeC-G-38" vertex="1">
          <mxGeometry y="50" width="160" height="8" as="geometry" />
        </mxCell>
        <mxCell id="Qvv73ghP7qG-29LPeC-G-41" value="selectAndRentBike()" style="text;strokeColor=none;fillColor=none;align=left;verticalAlign=top;spacingLeft=4;spacingRight=4;overflow=hidden;rotatable=0;points=[[0,0.5],[1,0.5]];portConstraint=eastwest;whiteSpace=wrap;html=1;" parent="Qvv73ghP7qG-29LPeC-G-38" vertex="1">
          <mxGeometry y="58" width="160" height="72" as="geometry" />
        </mxCell>
        <mxCell id="Qvv73ghP7qG-29LPeC-G-42" value="&amp;lt;&amp;lt;entity&amp;gt;&amp;gt;&lt;div&gt;&lt;div&gt;&lt;div&gt;User&lt;/div&gt;&lt;/div&gt;&lt;/div&gt;" style="swimlane;fontStyle=1;align=center;verticalAlign=top;childLayout=stackLayout;horizontal=1;startSize=50;horizontalStack=0;resizeParent=1;resizeParentMax=0;resizeLast=0;collapsible=1;marginBottom=0;whiteSpace=wrap;html=1;" parent="1" vertex="1">
          <mxGeometry x="800" y="467" width="160" height="204" as="geometry">
            <mxRectangle x="50" y="40" width="110" height="60" as="alternateBounds" />
          </mxGeometry>
        </mxCell>
        <mxCell id="Qvv73ghP7qG-29LPeC-G-43" value="userID&lt;div&gt;userPassword&lt;/div&gt;&lt;div&gt;phoneNumber&lt;/div&gt;&lt;div&gt;isLogIn&lt;/div&gt;&lt;div&gt;isAdmin&lt;/div&gt;" style="text;strokeColor=none;fillColor=none;align=left;verticalAlign=top;spacingLeft=4;spacingRight=4;overflow=hidden;rotatable=0;points=[[0,0.5],[1,0.5]];portConstraint=eastwest;whiteSpace=wrap;html=1;" parent="Qvv73ghP7qG-29LPeC-G-42" vertex="1">
          <mxGeometry y="50" width="160" height="74" as="geometry" />
        </mxCell>
        <mxCell id="Qvv73ghP7qG-29LPeC-G-44" value="" style="line;strokeWidth=1;fillColor=none;align=left;verticalAlign=middle;spacingTop=-1;spacingLeft=3;spacingRight=3;rotatable=0;labelPosition=right;points=[];portConstraint=eastwest;strokeColor=inherit;" parent="Qvv73ghP7qG-29LPeC-G-42" vertex="1">
          <mxGeometry y="124" width="160" height="8" as="geometry" />
        </mxCell>
        <mxCell id="Qvv73ghP7qG-29LPeC-G-45" value="setLogIn()&lt;div&gt;setLogOut()&lt;/div&gt;" style="text;strokeColor=none;fillColor=none;align=left;verticalAlign=top;spacingLeft=4;spacingRight=4;overflow=hidden;rotatable=0;points=[[0,0.5],[1,0.5]];portConstraint=eastwest;whiteSpace=wrap;html=1;" parent="Qvv73ghP7qG-29LPeC-G-42" vertex="1">
          <mxGeometry y="132" width="160" height="72" as="geometry" />
        </mxCell>
        <mxCell id="Qvv73ghP7qG-29LPeC-G-46" value="&amp;lt;&amp;lt;entity&amp;gt;&amp;gt;&lt;div&gt;&lt;div&gt;&lt;div&gt;Bike&lt;/div&gt;&lt;/div&gt;&lt;/div&gt;" style="swimlane;fontStyle=1;align=center;verticalAlign=top;childLayout=stackLayout;horizontal=1;startSize=50;horizontalStack=0;resizeParent=1;resizeParentMax=0;resizeLast=0;collapsible=1;marginBottom=0;whiteSpace=wrap;html=1;" parent="1" vertex="1">
          <mxGeometry x="520" y="467" width="160" height="204" as="geometry">
            <mxRectangle x="50" y="40" width="110" height="60" as="alternateBounds" />
          </mxGeometry>
        </mxCell>
        <mxCell id="Qvv73ghP7qG-29LPeC-G-47" value="bikeID&lt;div&gt;bikeProductName&lt;/div&gt;&lt;div&gt;isOccupied&lt;/div&gt;&lt;div&gt;occupyingUser&lt;/div&gt;" style="text;strokeColor=none;fillColor=none;align=left;verticalAlign=top;spacingLeft=4;spacingRight=4;overflow=hidden;rotatable=0;points=[[0,0.5],[1,0.5]];portConstraint=eastwest;whiteSpace=wrap;html=1;" parent="Qvv73ghP7qG-29LPeC-G-46" vertex="1">
          <mxGeometry y="50" width="160" height="74" as="geometry" />
        </mxCell>
        <mxCell id="Qvv73ghP7qG-29LPeC-G-48" value="" style="line;strokeWidth=1;fillColor=none;align=left;verticalAlign=middle;spacingTop=-1;spacingLeft=3;spacingRight=3;rotatable=0;labelPosition=right;points=[];portConstraint=eastwest;strokeColor=inherit;" parent="Qvv73ghP7qG-29LPeC-G-46" vertex="1">
          <mxGeometry y="124" width="160" height="8" as="geometry" />
        </mxCell>
        <mxCell id="Qvv73ghP7qG-29LPeC-G-49" value="setRent()&lt;div&gt;checkRental()&lt;/div&gt;" style="text;strokeColor=none;fillColor=none;align=left;verticalAlign=top;spacingLeft=4;spacingRight=4;overflow=hidden;rotatable=0;points=[[0,0.5],[1,0.5]];portConstraint=eastwest;whiteSpace=wrap;html=1;" parent="Qvv73ghP7qG-29LPeC-G-46" vertex="1">
          <mxGeometry y="132" width="160" height="72" as="geometry" />
        </mxCell>
        <mxCell id="n51DBC5dj4tF-gG573EE-1" value="&amp;lt;&amp;lt;entity&amp;gt;&amp;gt;&lt;div&gt;&lt;div&gt;&lt;div&gt;BikeList&lt;/div&gt;&lt;/div&gt;&lt;/div&gt;" style="swimlane;fontStyle=1;align=center;verticalAlign=top;childLayout=stackLayout;horizontal=1;startSize=50;horizontalStack=0;resizeParent=1;resizeParentMax=0;resizeLast=0;collapsible=1;marginBottom=0;whiteSpace=wrap;html=1;" vertex="1" parent="1">
          <mxGeometry x="520" y="157" width="160" height="204" as="geometry">
            <mxRectangle x="50" y="40" width="110" height="60" as="alternateBounds" />
          </mxGeometry>
        </mxCell>
        <mxCell id="n51DBC5dj4tF-gG573EE-2" value="bikeList" style="text;strokeColor=none;fillColor=none;align=left;verticalAlign=top;spacingLeft=4;spacingRight=4;overflow=hidden;rotatable=0;points=[[0,0.5],[1,0.5]];portConstraint=eastwest;whiteSpace=wrap;html=1;" vertex="1" parent="n51DBC5dj4tF-gG573EE-1">
          <mxGeometry y="50" width="160" height="74" as="geometry" />
        </mxCell>
        <mxCell id="n51DBC5dj4tF-gG573EE-3" value="" style="line;strokeWidth=1;fillColor=none;align=left;verticalAlign=middle;spacingTop=-1;spacingLeft=3;spacingRight=3;rotatable=0;labelPosition=right;points=[];portConstraint=eastwest;strokeColor=inherit;" vertex="1" parent="n51DBC5dj4tF-gG573EE-1">
          <mxGeometry y="124" width="160" height="8" as="geometry" />
        </mxCell>
        <mxCell id="n51DBC5dj4tF-gG573EE-4" value="addNewBike()&lt;div&gt;setRentBike()&lt;/div&gt;&lt;div&gt;getRentalBikeList()&lt;/div&gt;" style="text;strokeColor=none;fillColor=none;align=left;verticalAlign=top;spacingLeft=4;spacingRight=4;overflow=hidden;rotatable=0;points=[[0,0.5],[1,0.5]];portConstraint=eastwest;whiteSpace=wrap;html=1;" vertex="1" parent="n51DBC5dj4tF-gG573EE-1">
          <mxGeometry y="132" width="160" height="72" as="geometry" />
        </mxCell>
        <mxCell id="n51DBC5dj4tF-gG573EE-5" value="&amp;lt;&amp;lt;entity&amp;gt;&amp;gt;&lt;div&gt;&lt;div&gt;&lt;div&gt;UserList&lt;/div&gt;&lt;/div&gt;&lt;/div&gt;" style="swimlane;fontStyle=1;align=center;verticalAlign=top;childLayout=stackLayout;horizontal=1;startSize=50;horizontalStack=0;resizeParent=1;resizeParentMax=0;resizeLast=0;collapsible=1;marginBottom=0;whiteSpace=wrap;html=1;" vertex="1" parent="1">
          <mxGeometry x="800" y="157" width="160" height="204" as="geometry">
            <mxRectangle x="50" y="40" width="110" height="60" as="alternateBounds" />
          </mxGeometry>
        </mxCell>
        <mxCell id="n51DBC5dj4tF-gG573EE-6" value="userList" style="text;strokeColor=none;fillColor=none;align=left;verticalAlign=top;spacingLeft=4;spacingRight=4;overflow=hidden;rotatable=0;points=[[0,0.5],[1,0.5]];portConstraint=eastwest;whiteSpace=wrap;html=1;" vertex="1" parent="n51DBC5dj4tF-gG573EE-5">
          <mxGeometry y="50" width="160" height="74" as="geometry" />
        </mxCell>
        <mxCell id="n51DBC5dj4tF-gG573EE-7" value="" style="line;strokeWidth=1;fillColor=none;align=left;verticalAlign=middle;spacingTop=-1;spacingLeft=3;spacingRight=3;rotatable=0;labelPosition=right;points=[];portConstraint=eastwest;strokeColor=inherit;" vertex="1" parent="n51DBC5dj4tF-gG573EE-5">
          <mxGeometry y="124" width="160" height="8" as="geometry" />
        </mxCell>
        <mxCell id="n51DBC5dj4tF-gG573EE-8" value="&lt;div&gt;addNewUser()&lt;/div&gt;checkUser()" style="text;strokeColor=none;fillColor=none;align=left;verticalAlign=top;spacingLeft=4;spacingRight=4;overflow=hidden;rotatable=0;points=[[0,0.5],[1,0.5]];portConstraint=eastwest;whiteSpace=wrap;html=1;" vertex="1" parent="n51DBC5dj4tF-gG573EE-5">
          <mxGeometry y="132" width="160" height="72" as="geometry" />
        </mxCell>
        <mxCell id="n51DBC5dj4tF-gG573EE-9" value="" style="endArrow=none;html=1;rounded=0;exitX=1;exitY=0.5;exitDx=0;exitDy=0;entryX=0;entryY=0.5;entryDx=0;entryDy=0;" edge="1" parent="1" source="Qvv73ghP7qG-29LPeC-G-47" target="Qvv73ghP7qG-29LPeC-G-43">
          <mxGeometry width="50" height="50" relative="1" as="geometry">
            <mxPoint x="720" y="537" as="sourcePoint" />
            <mxPoint x="770" y="487" as="targetPoint" />
          </mxGeometry>
        </mxCell>
        <mxCell id="n51DBC5dj4tF-gG573EE-10" value="occupied by ▶︎" style="edgeLabel;html=1;align=center;verticalAlign=middle;resizable=0;points=[];" vertex="1" connectable="0" parent="n51DBC5dj4tF-gG573EE-9">
          <mxGeometry x="0.0333" y="-2" relative="1" as="geometry">
            <mxPoint y="11" as="offset" />
          </mxGeometry>
        </mxCell>
        <mxCell id="n51DBC5dj4tF-gG573EE-11" value="1" style="text;html=1;align=center;verticalAlign=middle;resizable=0;points=[];autosize=1;strokeColor=none;fillColor=none;" vertex="1" parent="1">
          <mxGeometry x="680" y="525" width="30" height="30" as="geometry" />
        </mxCell>
        <mxCell id="n51DBC5dj4tF-gG573EE-12" value="0..1" style="text;html=1;align=center;verticalAlign=middle;resizable=0;points=[];autosize=1;strokeColor=none;fillColor=none;" vertex="1" parent="1">
          <mxGeometry x="760" y="526" width="40" height="30" as="geometry" />
        </mxCell>
        <mxCell id="n51DBC5dj4tF-gG573EE-13" value="" style="endArrow=none;html=1;rounded=0;exitX=0.5;exitY=0;exitDx=0;exitDy=0;entryX=0.5;entryY=0.972;entryDx=0;entryDy=0;entryPerimeter=0;" edge="1" parent="1" source="Qvv73ghP7qG-29LPeC-G-46" target="n51DBC5dj4tF-gG573EE-4">
          <mxGeometry width="50" height="50" relative="1" as="geometry">
            <mxPoint x="720" y="537" as="sourcePoint" />
            <mxPoint x="598" y="361" as="targetPoint" />
          </mxGeometry>
        </mxCell>
        <mxCell id="n51DBC5dj4tF-gG573EE-14" value="has&amp;nbsp;&lt;div&gt;&lt;br&gt;&lt;/div&gt;" style="edgeLabel;html=1;align=center;verticalAlign=middle;resizable=0;points=[];" vertex="1" connectable="0" parent="1">
          <mxGeometry x="622" y="417" as="geometry" />
        </mxCell>
        <mxCell id="n51DBC5dj4tF-gG573EE-15" value="▶︎&lt;br&gt;&lt;div&gt;&lt;br&gt;&lt;/div&gt;" style="edgeLabel;html=1;align=center;verticalAlign=middle;resizable=0;points=[];rotation=90;" vertex="1" connectable="0" parent="1">
          <mxGeometry x="616" y="427" as="geometry" />
        </mxCell>
        <mxCell id="n51DBC5dj4tF-gG573EE-16" value="1" style="text;html=1;align=center;verticalAlign=middle;resizable=0;points=[];autosize=1;strokeColor=none;fillColor=none;" vertex="1" parent="1">
          <mxGeometry x="601" y="361" width="30" height="30" as="geometry" />
        </mxCell>
        <mxCell id="n51DBC5dj4tF-gG573EE-17" value="0..*" style="text;html=1;align=center;verticalAlign=middle;resizable=0;points=[];autosize=1;strokeColor=none;fillColor=none;" vertex="1" parent="1">
          <mxGeometry x="602" y="437" width="40" height="30" as="geometry" />
        </mxCell>
        <mxCell id="n51DBC5dj4tF-gG573EE-21" value="" style="endArrow=none;html=1;rounded=0;exitX=0.5;exitY=0;exitDx=0;exitDy=0;entryX=0.5;entryY=0.972;entryDx=0;entryDy=0;entryPerimeter=0;" edge="1" parent="1">
          <mxGeometry width="50" height="50" relative="1" as="geometry">
            <mxPoint x="880" y="467" as="sourcePoint" />
            <mxPoint x="880" y="359" as="targetPoint" />
          </mxGeometry>
        </mxCell>
        <mxCell id="n51DBC5dj4tF-gG573EE-22" value="has&amp;nbsp;&lt;div&gt;&lt;br&gt;&lt;/div&gt;" style="edgeLabel;html=1;align=center;verticalAlign=middle;resizable=0;points=[];" vertex="1" connectable="0" parent="1">
          <mxGeometry x="902" y="421" as="geometry" />
        </mxCell>
        <mxCell id="n51DBC5dj4tF-gG573EE-23" value="▶︎&lt;br&gt;&lt;div&gt;&lt;br&gt;&lt;/div&gt;" style="edgeLabel;html=1;align=center;verticalAlign=middle;resizable=0;points=[];rotation=90;" vertex="1" connectable="0" parent="1">
          <mxGeometry x="896" y="431" as="geometry" />
        </mxCell>
        <mxCell id="n51DBC5dj4tF-gG573EE-24" value="1" style="text;html=1;align=center;verticalAlign=middle;resizable=0;points=[];autosize=1;strokeColor=none;fillColor=none;" vertex="1" parent="1">
          <mxGeometry x="881" y="365" width="30" height="30" as="geometry" />
        </mxCell>
        <mxCell id="n51DBC5dj4tF-gG573EE-25" value="0..*" style="text;html=1;align=center;verticalAlign=middle;resizable=0;points=[];autosize=1;strokeColor=none;fillColor=none;" vertex="1" parent="1">
          <mxGeometry x="882" y="441" width="40" height="30" as="geometry" />
        </mxCell>
      </root>
    </mxGraphModel>
  </diagram>
</mxfile>
